<?xml version="1.0" encoding="UTF-8" standalone="no"?>
<!-- Created with Inkscape (http://www.inkscape.org/) -->

<svg
   xmlns:dc="http://purl.org/dc/elements/1.1/"
   xmlns:cc="http://creativecommons.org/ns#"
   xmlns:rdf="http://www.w3.org/1999/02/22-rdf-syntax-ns#"
   xmlns:svg="http://www.w3.org/2000/svg"
   xmlns="http://www.w3.org/2000/svg"
   xmlns:sodipodi="http://sodipodi.sourceforge.net/DTD/sodipodi-0.dtd"
   xmlns:inkscape="http://www.inkscape.org/namespaces/inkscape"
   width="220.99112"
   height="175.04774"
   id="svg3749"
   version="1.1"
   inkscape:version="0.47pre3 "
   sodipodi:docname="cmp.svg">
  <defs
     id="defs3751">
    <inkscape:perspective
       sodipodi:type="inkscape:persp3d"
       inkscape:vp_x="0 : 526.18109 : 1"
       inkscape:vp_y="0 : 1000 : 0"
       inkscape:vp_z="744.09448 : 526.18109 : 1"
       inkscape:persp3d-origin="372.04724 : 350.78739 : 1"
       id="perspective3757" />
    <inkscape:perspective
       id="perspective3727"
       inkscape:persp3d-origin="0.5 : 0.33333333 : 1"
       inkscape:vp_z="1 : 0.5 : 1"
       inkscape:vp_y="0 : 1000 : 0"
       inkscape:vp_x="0 : 0.5 : 1"
       sodipodi:type="inkscape:persp3d" />
    <clipPath
       clipPathUnits="userSpaceOnUse"
       id="clipPath3614">
      <path
         d="m 5606.9907,1930.3891 c 0,10.3889 11.5864,24.2554 25.8794,30.9722 14.2929,6.7167 25.8794,3.74 25.8794,-6.6489 0,-10.3888 -11.5865,-24.2553 -25.8794,-30.9721 -14.293,-6.7168 -25.8794,-3.74 -25.8794,6.6488 z"
         clip-rule="evenodd"
         id="path3616" />
    </clipPath>
    <clipPath
       clipPathUnits="userSpaceOnUse"
       id="clipPath3602">
      <path
         d="m 5600.3867,1927.2333 c 0,11.7664 13.2705,27.5408 29.6406,35.2339 16.3701,7.693 29.6406,4.391 29.6406,-7.3755 0,-11.7663 -13.2705,-27.5408 -29.6406,-35.2338 -16.3701,-7.693 -29.6406,-4.391 -29.6406,7.3754 z"
         clip-rule="evenodd"
         id="path3604" />
    </clipPath>
    <inkscape:perspective
       id="perspective4583"
       inkscape:persp3d-origin="0.5 : 0.33333333 : 1"
       inkscape:vp_z="1 : 0.5 : 1"
       inkscape:vp_y="0 : 1000 : 0"
       inkscape:vp_x="0 : 0.5 : 1"
       sodipodi:type="inkscape:persp3d" />
    <clipPath
       clipPathUnits="userSpaceOnUse"
       id="clipPath3546">
      <path
         d="m 5606.9907,1790.3508 c 0,10.3889 11.5864,24.2554 25.8794,30.9721 14.2929,6.7168 25.8794,3.74 25.8794,-6.6488 0,-10.3887 -11.5865,-24.2553 -25.8794,-30.9721 -14.293,-6.7167 -25.8794,-3.74 -25.8794,6.6488 z"
         clip-rule="evenodd"
         id="path3548" />
    </clipPath>
    <clipPath
       clipPathUnits="userSpaceOnUse"
       id="clipPath3534">
      <path
         d="m 5600.3867,1787.195 c 0,11.7664 13.2705,27.5409 29.6406,35.2339 16.3701,7.693 29.6406,4.391 29.6406,-7.3754 0,-11.7664 -13.2705,-27.5409 -29.6406,-35.234 -16.3701,-7.693 -29.6406,-4.3908 -29.6406,7.3755 z"
         clip-rule="evenodd"
         id="path3536" />
    </clipPath>
    <inkscape:perspective
       id="perspective4653"
       inkscape:persp3d-origin="0.5 : 0.33333333 : 1"
       inkscape:vp_z="1 : 0.5 : 1"
       inkscape:vp_y="0 : 1000 : 0"
       inkscape:vp_x="0 : 0.5 : 1"
       sodipodi:type="inkscape:persp3d" />
  </defs>
  <sodipodi:namedview
     id="base"
     pagecolor="#ffffff"
     bordercolor="#666666"
     borderopacity="1.0"
     inkscape:pageopacity="0.0"
     inkscape:pageshadow="2"
     inkscape:zoom="0.24748737"
     inkscape:cx="92.370513"
     inkscape:cy="1.2058158"
     inkscape:document-units="px"
     inkscape:current-layer="layer1"
     showgrid="false"
     inkscape:window-width="866"
     inkscape:window-height="682"
     inkscape:window-x="22"
     inkscape:window-y="22"
     inkscape:window-maximized="0" />
  <metadata
     id="metadata3754">
    <rdf:RDF>
      <cc:Work
         rdf:about="">
        <dc:format>image/svg+xml</dc:format>
        <dc:type
           rdf:resource="http://purl.org/dc/dcmitype/StillImage" />
      </cc:Work>
    </rdf:RDF>
  </metadata>
  <g
     inkscape:label="Layer 1"
     inkscape:groupmode="layer"
     id="layer1"
     transform="translate(-323.79015,-584.83831)">
    <path
       id="path3480"
       style="fill:#ff00ff;fill-opacity:1;fill-rule:evenodd;stroke:none"
       d="m 323.79015,584.83831 220.99112,0 0,175.04775 -220.99112,0 0,-175.04775 z" />
    <text
       style="font-size:15px"
       id="text3588"
       x="382.39127"
       y="707.68268"
       inkscape:export-filename="C:\users\fcorreia\projects\Gisa\ClientServer\GisaTrunk\dev\client\Icons\Integracao\cmp.png"
       inkscape:export-xdpi="27.313265"
       inkscape:export-ydpi="27.313265">
      <tspan
         id="tspan3590"
         sodipodi:role="line"
         y="707.68268"
         x="382.39127 402.77591 424.95496 445.84204 464.02551"
         style="font-size:23.92562485px;font-variant:normal;font-weight:normal;writing-mode:lr-tb;fill:#ffffff;fill-opacity:1;fill-rule:nonzero;stroke:none;font-family:Vibrocentric;-inkscape-font-specification:Vibrocentric">PORTO</tspan>
    </text>
    <text
       style="font-size:15px"
       id="text3592"
       x="382.83505"
       y="722.24445"
       inkscape:export-filename="C:\users\fcorreia\projects\Gisa\ClientServer\GisaTrunk\dev\client\Icons\Integracao\cmp.png"
       inkscape:export-xdpi="27.313265"
       inkscape:export-ydpi="27.313265">
      <tspan
         id="tspan3594"
         sodipodi:role="line"
         y="722.24445"
         x="382.83505 390.24725 397.00003 407.74533 414.49811 419.24866 426.00143 429.42111 440.82587 448.23807 455.65027 459.06998 464.47992 467.89963 475.31186 482.06464"
         style="font-size:11.98950005px;font-variant:normal;font-weight:normal;writing-mode:lr-tb;fill:#ffffff;fill-opacity:1;fill-rule:nonzero;stroke:none;font-family:Frutiger;-inkscape-font-specification:Frutiger-Roman">Câmara Municipal</tspan>
    </text>
    <path
       style="fill:#ffffff;fill-opacity:1;fill-rule:evenodd;stroke:none"
       d="m 453.65625,619.1875 c -5.91334,-0.0925 -13.04526,1.58141 -20.71875,5.1875 -20.46262,9.61637 -37.03125,29.3545 -37.03125,44.0625 0,14.708 16.56863,18.835 37.03125,9.21875 C 453.40013,668.04 470,648.30163 470,633.59375 c 0,-9.19258 -6.48819,-14.25203 -16.34375,-14.40625 z m -0.375,2.09375 c 9.33757,-0.26418 15.5625,4.29035 15.5625,12.8125 0,12.986 -14.47762,30.32275 -32.34375,38.71875 -17.86625,8.396 -32.34375,4.6735 -32.34375,-8.3125 0,-12.98612 14.4775,-30.32275 32.34375,-38.71875 6.14148,-2.88608 11.89014,-4.36162 16.78125,-4.5 z"
       id="path3596"
       inkscape:export-filename="C:\users\fcorreia\projects\Gisa\ClientServer\GisaTrunk\dev\client\Icons\Integracao\cmp.png"
       inkscape:export-xdpi="38.169666"
       inkscape:export-ydpi="38.169666" />
    <g
       id="g3598"
       transform="matrix(1.25,0,0,-1.25,-6604.5887,3077.4733)"
       inkscape:export-filename="C:\users\fcorreia\projects\Gisa\ClientServer\GisaTrunk\dev\client\Icons\Integracao\cmp.png"
       inkscape:export-xdpi="38.169666"
       inkscape:export-ydpi="38.169666">
      <g
         clip-path="url(#clipPath3602)"
         id="g3600">
        <path
           id="path3606"
           style="fill:#ffffff;fill-opacity:1;fill-rule:nonzero;stroke:none"
           d="m 5631.8867,1946.07 c -0.3609,0 -0.6534,-0.2925 -0.6534,-0.6533 l 0,-2.1348 1.3956,0 0,2.1348 c 0,0.3608 -0.2925,0.6533 -0.6534,0.6533 l -0.089,0 z m 4.4028,-22.2203 0,-1.0586 0,1.0586 z m -8.7153,-0.04 c 0,0.1571 -0.2232,0.3095 -0.3916,0.4237 l 0,0.4611 0.3916,0 0,5.62 c 0,0.157 -0.2227,0.3093 -0.3916,0.4236 l 0,0.4597 0.3936,4e-4 -5e-4,1.0272 c 0,0.1571 -0.2232,0.3094 -0.3916,0.4237 l 0,0.4628 0.3935,3e-4 c 0.1553,0.022 0.3545,0.3267 0.3545,0.5075 l 0,0.5921 c -0.1743,0.035 -0.3032,0.1603 -0.3032,0.3096 0,0.1644 0.1562,0.2999 0.3574,0.3174 l 0,0.5758 c -0.1055,0.014 -0.185,0.074 -0.185,0.1455 0,0.082 0.1049,0.1488 0.2343,0.1488 -0.029,0.029 -0.05,0.071 -0.05,0.1179 0,0.088 0.071,0.1593 0.1592,0.1593 0.088,0 0.1597,-0.071 0.1597,-0.1593 0,-0.047 -0.021,-0.089 -0.052,-0.1179 0.1319,0 0.2368,-0.066 0.2368,-0.1488 0,-0.071 -0.079,-0.1311 -0.185,-0.1455 l 0,-0.5757 c 0.2016,-0.017 0.3584,-0.1527 0.3584,-0.3175 0,-0.149 -0.1284,-0.2744 -0.3023,-0.3094 l 0,-0.5923 c 0,-0.1792 0.1988,-0.4806 0.3536,-0.5075 l 0.4926,-3e-4 0,2.6731 c -0.054,0.1304 -0.2353,0.2541 -0.3779,0.3504 l 0,0.3097 0.3779,-7e-4 c 0,0.5638 -0.1303,0.9817 -0.3008,1.2895 -0.044,-0.046 -0.1054,-0.074 -0.1738,-0.074 -0.1338,0 -0.2417,0.108 -0.2417,0.2415 0,0.097 0.057,0.1798 0.1387,0.2185 -0.2139,0.2331 -0.4219,0.3482 -0.4941,0.3974 l 0,0.5287 0.1962,0 0,0.9667 -0.1962,0 0,0.5216 c 0,0 0.2158,0.2341 0.2158,0.3706 l 0,0.4308 c -0.127,0.025 -0.2207,0.1167 -0.2207,0.2253 0,0.1197 0.1137,0.2183 0.2597,0.231 l 0,0.4189 c -0.077,0.011 -0.1342,0.054 -0.1342,0.1059 0,0.06 0.076,0.1084 0.1704,0.1084 -0.021,0.021 -0.036,0.052 -0.036,0.086 0,0.064 0.052,0.1158 0.1158,0.1158 0.064,0 0.1162,-0.052 0.1162,-0.1158 0,-0.034 -0.015,-0.065 -0.038,-0.086 0.096,0 0.1723,-0.049 0.1723,-0.1084 0,-0.052 -0.058,-0.095 -0.1347,-0.1059 l 0,-0.4189 c 0.1465,-0.013 0.2607,-0.1111 0.2607,-0.231 0,-0.1085 -0.093,-0.1996 -0.2202,-0.2252 l 5e-4,-0.4309 c 0,-0.045 0.017,-0.1013 0.045,-0.1559 l 0.4903,0.1707 -5e-4,3.2773 c -0.1739,0 -0.2476,0.024 -0.2476,0.2002 l 0,0.7958 c 0,0.1766 0.074,0.1986 0.2481,0.2002 l 0,1.14 c 0,0.1508 -0.146,0.3722 -0.25,0.4128 l 0,0.3096 0.2944,3e-4 c 0.145,0.071 0.3056,0.3302 0.3056,0.4908 l 0,1.0326 c -0.1743,0.035 -0.3032,0.1601 -0.3032,0.3096 0,0.1644 0.1563,0.2998 0.3574,0.3173 l 0,0.5757 c -0.1054,0.015 -0.185,0.074 -0.185,0.1457 0,0.082 0.105,0.1489 0.2344,0.1489 -0.029,0.029 -0.05,0.071 -0.05,0.1178 0,0.088 0.071,0.1592 0.1596,0.1592 0.088,0 0.1592,-0.071 0.1592,-0.1592 0,-0.047 -0.02,-0.089 -0.052,-0.1178 0.1318,0 0.2368,-0.067 0.2368,-0.1489 0,-0.072 -0.08,-0.1311 -0.1851,-0.1457 l 0,-0.5757 c 0.2017,-0.017 0.3584,-0.1525 0.3584,-0.3173 0,-0.1492 -0.1284,-0.2745 -0.3022,-0.3095 l 0,-1.0327 c 0,-0.1772 0.1948,-0.4626 0.3486,-0.4948 l 0.1484,0 0,0.3429 c 0.071,0.097 0.1206,0.3198 0.1206,0.5787 0,0.26 -0.05,0.4833 -0.1215,0.58 0,0.8628 0.5893,1.2156 0.7578,1.3298 l 0,0.9204 0.2724,0 0,1.0524 0.2828,0 c -0.2959,0.068 -0.5171,0.3333 -0.5171,0.6499 0,0.3367 0.2495,0.615 0.5737,0.6604 l 0,2.7357 -0.7031,0 0,0.1867 0.7031,0 0,0.7824 0.1865,0 0,-0.7824 0.7022,0 0,-0.1867 -0.7022,0 0,-2.7357 c 0.3242,-0.045 0.5737,-0.3237 0.5737,-0.6604 0,-0.3166 -0.2207,-0.5819 -0.517,-0.6499 l 0.2817,0 0,-1.0524 0.2729,0 0,-0.9204 c 0.1685,-0.1142 0.7847,-0.467 0.7847,-1.285 -0.071,-0.1432 -0.1201,-0.3656 -0.1201,-0.6245 0,-0.2591 0.049,-0.4816 0.1206,-0.5788 l 0,-0.3431 0.1143,0 c 0.1538,0.032 0.3486,0.3169 0.3486,0.4941 l 0,1.0327 c -0.1738,0.035 -0.3023,0.1603 -0.3023,0.3095 0,0.1648 0.1568,0.3003 0.3584,0.3173 l 0,0.5757 c -0.1059,0.015 -0.185,0.074 -0.185,0.1457 0,0.082 0.105,0.1489 0.2368,0.1489 -0.032,0.029 -0.052,0.071 -0.052,0.1178 0,0.088 0.071,0.1592 0.1591,0.1592 0.088,0 0.1592,-0.071 0.1592,-0.1592 0,-0.047 -0.02,-0.089 -0.05,-0.1178 0.1294,0 0.2344,-0.067 0.2344,-0.1489 0,-0.072 -0.079,-0.1311 -0.1846,-0.1457 l 0,-0.5757 c 0.2007,-0.018 0.3574,-0.1529 0.3574,-0.3173 0,-0.1495 -0.1289,-0.2748 -0.3032,-0.3096 l 0,-1.0326 c 0,-0.1606 0.1607,-0.4198 0.3052,-0.4908 l 0.292,-3e-4 0,-0.3096 c -0.103,-0.043 -0.2476,-0.2592 -0.2476,-0.4104 l 0,-1.1424 c 0.1739,0 0.2486,-0.024 0.2486,-0.2002 l 0,-0.7958 c 0,-0.1767 -0.074,-0.1987 -0.2476,-0.2002 l -5e-4,-3.2773 0.4902,-0.1707 c 0.027,0.055 0.045,0.1106 0.045,0.1559 l 0,0.4309 c -0.1265,0.026 -0.2202,0.1167 -0.2202,0.2252 0,0.1199 0.1142,0.2185 0.2612,0.231 l 0,0.4189 c -0.077,0.011 -0.1348,0.054 -0.1348,0.1059 0,0.06 0.076,0.1084 0.1724,0.1084 -0.024,0.021 -0.038,0.052 -0.038,0.086 0,0.064 0.052,0.1158 0.1157,0.1158 0.064,0 0.1162,-0.052 0.1162,-0.1158 0,-0.034 -0.015,-0.065 -0.036,-0.086 0.094,0 0.1704,-0.049 0.1704,-0.1084 0,-0.052 -0.058,-0.095 -0.1348,-0.1059 l 0,-0.4189 c 0.1465,-0.013 0.2603,-0.1113 0.2603,-0.231 0,-0.1086 -0.094,-0.1999 -0.2207,-0.2253 l 0,-0.4308 c 0,-0.1365 0.2158,-0.3706 0.2158,-0.3706 l 0,-0.5216 -0.1943,0 0,-0.9667 0.1943,0 0,-0.5287 c -0.072,-0.049 -0.2788,-0.1632 -0.4912,-0.3943 0.086,-0.037 0.1455,-0.1223 0.1455,-0.2216 0,-0.1335 -0.1079,-0.2415 -0.2412,-0.2415 -0.072,0 -0.1362,0.031 -0.1807,0.081 -0.1723,-0.3085 -0.3042,-0.7284 -0.3042,-1.2964 l 0.3765,7e-4 0,-0.3096 c -0.1411,-0.096 -0.3218,-0.2185 -0.3765,-0.3484 l 0,-2.6752 0.4927,3e-4 c 0.1543,0.027 0.3535,0.3283 0.3535,0.5075 l 0,0.5923 c -0.1738,0.035 -0.3022,0.1604 -0.3022,0.3094 0,0.1648 0.1567,0.3003 0.3584,0.3175 l 0,0.5757 c -0.106,0.014 -0.1851,0.074 -0.1851,0.1455 0,0.082 0.105,0.1488 0.2368,0.1488 -0.032,0.029 -0.052,0.071 -0.052,0.1179 0,0.088 0.071,0.1593 0.1592,0.1593 0.088,0 0.1592,-0.071 0.1592,-0.1593 0,-0.047 -0.02,-0.089 -0.05,-0.1179 0.1294,0 0.2344,-0.066 0.2344,-0.1488 0,-0.071 -0.079,-0.1311 -0.1845,-0.1455 l 0,-0.5758 c 0.2006,-0.017 0.3574,-0.153 0.3574,-0.3174 0,-0.1493 -0.1294,-0.2748 -0.3033,-0.3096 l 0,-0.5921 c 0,-0.1808 0.2007,-0.4861 0.356,-0.5081 l 0.3916,3e-4 0,-0.4628 c -0.1684,-0.1143 -0.3916,-0.2666 -0.3916,-0.4237 l 0,-1.0272 0.3936,-4e-4 0,-0.4597 c -0.169,-0.1143 -0.3921,-0.2666 -0.3921,-0.4236 l 0,-5.62 0.3877,0 0,-0.4611 c -0.1543,-0.1047 -0.3545,-0.2412 -0.3872,-0.3841 l 0,-1.0586 0.3936,-3e-4 0,-0.4598 c -0.169,-0.1143 -0.3921,-0.2666 -0.3921,-0.4236 l 0.01,-3.8392 -8.7168,0 0,3.8392 c 0,0.157 -0.2227,0.3093 -0.3916,0.4236 l 0,0.4598 0.3936,3e-4 -5e-4,1.019 z" />
      </g>
    </g>
    <g
       id="g3610"
       transform="matrix(1.25,0,0,-1.25,-6604.5887,3077.4733)"
       inkscape:export-filename="C:\users\fcorreia\projects\Gisa\ClientServer\GisaTrunk\dev\client\Icons\Integracao\cmp.png"
       inkscape:export-xdpi="38.169666"
       inkscape:export-ydpi="38.169666">
      <g
         clip-path="url(#clipPath3614)"
         id="g3612">
        <path
           id="path3618"
           style="fill:#ffffff;fill-opacity:1;fill-rule:nonzero;stroke:none"
           d="m 5631.8867,1946.07 c -0.3609,0 -0.6534,-0.2925 -0.6534,-0.6533 l 0,-2.1348 1.3956,0 0,2.1348 c 0,0.3608 -0.2925,0.6533 -0.6534,0.6533 l -0.089,0 z m 4.4028,-22.2203 0,-1.0586 0,1.0586 z m -8.7153,-0.04 c 0,0.1571 -0.2232,0.3095 -0.3916,0.4237 l 0,0.4611 0.3916,0 0,5.62 c 0,0.157 -0.2227,0.3093 -0.3916,0.4236 l 0,0.4597 0.3936,4e-4 -5e-4,1.0272 c 0,0.1571 -0.2232,0.3094 -0.3916,0.4237 l 0,0.4628 0.3935,3e-4 c 0.1553,0.022 0.3545,0.3267 0.3545,0.5075 l 0,0.5921 c -0.1743,0.035 -0.3032,0.1603 -0.3032,0.3096 0,0.1644 0.1562,0.2999 0.3574,0.3174 l 0,0.5758 c -0.1055,0.014 -0.185,0.074 -0.185,0.1455 0,0.082 0.1049,0.1488 0.2343,0.1488 -0.029,0.029 -0.05,0.071 -0.05,0.1179 0,0.088 0.071,0.1593 0.1592,0.1593 0.088,0 0.1597,-0.071 0.1597,-0.1593 0,-0.047 -0.021,-0.089 -0.052,-0.1179 0.1319,0 0.2368,-0.066 0.2368,-0.1488 0,-0.071 -0.079,-0.1311 -0.185,-0.1455 l 0,-0.5757 c 0.2016,-0.017 0.3584,-0.1527 0.3584,-0.3175 0,-0.149 -0.1284,-0.2744 -0.3023,-0.3094 l 0,-0.5923 c 0,-0.1792 0.1988,-0.4806 0.3536,-0.5075 l 0.4926,-3e-4 0,2.6731 c -0.054,0.1304 -0.2353,0.2541 -0.3779,0.3504 l 0,0.3097 0.3779,-7e-4 c 0,0.5638 -0.1303,0.9817 -0.3008,1.2895 -0.044,-0.046 -0.1054,-0.074 -0.1738,-0.074 -0.1338,0 -0.2417,0.108 -0.2417,0.2415 0,0.097 0.057,0.1798 0.1387,0.2185 -0.2139,0.2331 -0.4219,0.3482 -0.4941,0.3974 l 0,0.5287 0.1962,0 0,0.9667 -0.1962,0 0,0.5216 c 0,0 0.2158,0.2341 0.2158,0.3706 l 0,0.4308 c -0.127,0.025 -0.2207,0.1167 -0.2207,0.2253 0,0.1197 0.1137,0.2183 0.2597,0.231 l 0,0.4189 c -0.077,0.011 -0.1342,0.054 -0.1342,0.1059 0,0.06 0.076,0.1084 0.1704,0.1084 -0.021,0.021 -0.036,0.052 -0.036,0.086 0,0.064 0.052,0.1158 0.1158,0.1158 0.064,0 0.1162,-0.052 0.1162,-0.1158 0,-0.034 -0.015,-0.065 -0.038,-0.086 0.096,0 0.1723,-0.049 0.1723,-0.1084 0,-0.052 -0.058,-0.095 -0.1347,-0.1059 l 0,-0.4189 c 0.1465,-0.013 0.2607,-0.1111 0.2607,-0.231 0,-0.1085 -0.093,-0.1996 -0.2202,-0.2252 l 5e-4,-0.4309 c 0,-0.045 0.017,-0.1013 0.045,-0.1559 l 0.4903,0.1707 -5e-4,3.2773 c -0.1739,0 -0.2476,0.024 -0.2476,0.2002 l 0,0.7958 c 0,0.1766 0.074,0.1986 0.2481,0.2002 l 0,1.14 c 0,0.1508 -0.146,0.3722 -0.25,0.4128 l 0,0.3096 0.2944,3e-4 c 0.145,0.071 0.3056,0.3302 0.3056,0.4908 l 0,1.0326 c -0.1743,0.035 -0.3032,0.1601 -0.3032,0.3096 0,0.1644 0.1563,0.2998 0.3574,0.3173 l 0,0.5757 c -0.1054,0.015 -0.185,0.074 -0.185,0.1457 0,0.082 0.105,0.1489 0.2344,0.1489 -0.029,0.029 -0.05,0.071 -0.05,0.1178 0,0.088 0.071,0.1592 0.1596,0.1592 0.088,0 0.1592,-0.071 0.1592,-0.1592 0,-0.047 -0.02,-0.089 -0.052,-0.1178 0.1318,0 0.2368,-0.067 0.2368,-0.1489 0,-0.072 -0.08,-0.1311 -0.1851,-0.1457 l 0,-0.5757 c 0.2017,-0.017 0.3584,-0.1525 0.3584,-0.3173 0,-0.1492 -0.1284,-0.2745 -0.3022,-0.3095 l 0,-1.0327 c 0,-0.1772 0.1948,-0.4626 0.3486,-0.4948 l 0.1484,0 0,0.3429 c 0.071,0.097 0.1206,0.3198 0.1206,0.5787 0,0.26 -0.05,0.4833 -0.1215,0.58 0,0.8628 0.5893,1.2156 0.7578,1.3298 l 0,0.9204 0.2724,0 0,1.0524 0.2828,0 c -0.2959,0.068 -0.5171,0.3333 -0.5171,0.6499 0,0.3367 0.2495,0.615 0.5737,0.6604 l 0,2.7357 -0.7031,0 0,0.1867 0.7031,0 0,0.7824 0.1865,0 0,-0.7824 0.7022,0 0,-0.1867 -0.7022,0 0,-2.7357 c 0.3242,-0.045 0.5737,-0.3237 0.5737,-0.6604 0,-0.3166 -0.2207,-0.5819 -0.517,-0.6499 l 0.2817,0 0,-1.0524 0.2729,0 0,-0.9204 c 0.1685,-0.1142 0.7847,-0.467 0.7847,-1.285 -0.071,-0.1432 -0.1201,-0.3656 -0.1201,-0.6245 0,-0.2591 0.049,-0.4816 0.1206,-0.5788 l 0,-0.3431 0.1143,0 c 0.1538,0.032 0.3486,0.3169 0.3486,0.4941 l 0,1.0327 c -0.1738,0.035 -0.3023,0.1603 -0.3023,0.3095 0,0.1648 0.1568,0.3003 0.3584,0.3173 l 0,0.5757 c -0.1059,0.015 -0.185,0.074 -0.185,0.1457 0,0.082 0.105,0.1489 0.2368,0.1489 -0.032,0.029 -0.052,0.071 -0.052,0.1178 0,0.088 0.071,0.1592 0.1591,0.1592 0.088,0 0.1592,-0.071 0.1592,-0.1592 0,-0.047 -0.02,-0.089 -0.05,-0.1178 0.1294,0 0.2344,-0.067 0.2344,-0.1489 0,-0.072 -0.079,-0.1311 -0.1846,-0.1457 l 0,-0.5757 c 0.2007,-0.018 0.3574,-0.1529 0.3574,-0.3173 0,-0.1495 -0.1289,-0.2748 -0.3032,-0.3096 l 0,-1.0326 c 0,-0.1606 0.1607,-0.4198 0.3052,-0.4908 l 0.292,-3e-4 0,-0.3096 c -0.103,-0.043 -0.2476,-0.2592 -0.2476,-0.4104 l 0,-1.1424 c 0.1739,0 0.2486,-0.024 0.2486,-0.2002 l 0,-0.7958 c 0,-0.1767 -0.074,-0.1987 -0.2476,-0.2002 l -5e-4,-3.2773 0.4902,-0.1707 c 0.027,0.055 0.045,0.1106 0.045,0.1559 l 0,0.4309 c -0.1265,0.026 -0.2202,0.1167 -0.2202,0.2252 0,0.1199 0.1142,0.2185 0.2612,0.231 l 0,0.4189 c -0.077,0.011 -0.1348,0.054 -0.1348,0.1059 0,0.06 0.076,0.1084 0.1724,0.1084 -0.024,0.021 -0.038,0.052 -0.038,0.086 0,0.064 0.052,0.1158 0.1157,0.1158 0.064,0 0.1162,-0.052 0.1162,-0.1158 0,-0.034 -0.015,-0.065 -0.036,-0.086 0.094,0 0.1704,-0.049 0.1704,-0.1084 0,-0.052 -0.058,-0.095 -0.1348,-0.1059 l 0,-0.4189 c 0.1465,-0.013 0.2603,-0.1113 0.2603,-0.231 0,-0.1086 -0.094,-0.1999 -0.2207,-0.2253 l 0,-0.4308 c 0,-0.1365 0.2158,-0.3706 0.2158,-0.3706 l 0,-0.5216 -0.1943,0 0,-0.9667 0.1943,0 0,-0.5287 c -0.072,-0.049 -0.2788,-0.1632 -0.4912,-0.3943 0.086,-0.037 0.1455,-0.1223 0.1455,-0.2216 0,-0.1335 -0.1079,-0.2415 -0.2412,-0.2415 -0.072,0 -0.1362,0.031 -0.1807,0.081 -0.1723,-0.3085 -0.3042,-0.7284 -0.3042,-1.2964 l 0.3765,7e-4 0,-0.3096 c -0.1411,-0.096 -0.3218,-0.2185 -0.3765,-0.3484 l 0,-2.6752 0.4927,3e-4 c 0.1543,0.027 0.3535,0.3283 0.3535,0.5075 l 0,0.5923 c -0.1738,0.035 -0.3022,0.1604 -0.3022,0.3094 0,0.1648 0.1567,0.3003 0.3584,0.3175 l 0,0.5757 c -0.106,0.014 -0.1851,0.074 -0.1851,0.1455 0,0.082 0.105,0.1488 0.2368,0.1488 -0.032,0.029 -0.052,0.071 -0.052,0.1179 0,0.088 0.071,0.1593 0.1592,0.1593 0.088,0 0.1592,-0.071 0.1592,-0.1593 0,-0.047 -0.02,-0.089 -0.05,-0.1179 0.1294,0 0.2344,-0.066 0.2344,-0.1488 0,-0.071 -0.079,-0.1311 -0.1845,-0.1455 l 0,-0.5758 c 0.2006,-0.017 0.3574,-0.153 0.3574,-0.3174 0,-0.1493 -0.1294,-0.2748 -0.3033,-0.3096 l 0,-0.5921 c 0,-0.1808 0.2007,-0.4861 0.356,-0.5081 l 0.3916,3e-4 0,-0.4628 c -0.1684,-0.1143 -0.3916,-0.2666 -0.3916,-0.4237 l 0,-1.0272 0.3936,-4e-4 0,-0.4597 c -0.169,-0.1143 -0.3921,-0.2666 -0.3921,-0.4236 l 0,-5.62 0.3877,0 0,-0.4611 c -0.1543,-0.1047 -0.3545,-0.2412 -0.3872,-0.3841 l 0,-1.0586 0.3936,-3e-4 0,-0.4598 c -0.169,-0.1143 -0.3921,-0.2666 -0.3921,-0.4236 l 0.01,-3.8392 -8.7168,0 0,3.8392 c 0,0.157 -0.2227,0.3093 -0.3916,0.4236 l 0,0.4598 0.3936,3e-4 -5e-4,1.019 z" />
      </g>
    </g>
  </g>
</svg>
